{"title":"Calvin Harris &amp; Alesso Ft. Hurts - Under Control [Music Vide","uid":9145455,"size":51345947,"categoryP":"video","categoryS":"music_videos","magnet":"?xt=urn:btih:ae3992a5c7d5374482bab314bb93b5ea1e885ddf&amp;dn=Calvin+Harris+%26amp%3B+Alesso+Ft.+Hurts+-+Under+Control+%5BMusic+Vide&amp;tr=udp%3A%2F%2Ftracker.openbittorrent.com%3A80&amp;tr=udp%3A%2F%2Fopen.demonii.com%3A1337&amp;tr=udp%3A%2F%2Ftracker.coppersurfer.tk%3A6969&amp;tr=udp%3A%2F%2Fexodus.desync.com%3A6969","seeders":5,"leechers":0,"uploader":"Sbyky","files":1,"time":1383586101,"description":"[IMG]http://cdn.piczend.com/images/85PLddpX/1383445156_undercontrol.jpg[/IMG]\n\nGeneral\nComplete name                            : Calvin Harris &amp; Alesso Ft. Hurts - Under Control [Music Video] 720p [Sbyky].MP4\nFormat                                   : MPEG-4\nFormat profile                           : Base Media\nCodec ID                                 : isom\nFile size                                : 49.0 MiB\nDuration                                 : 3mn 30s\nOverall bit rate mode                    : Variable\nOverall bit rate                         : 1 952 Kbps\nEncoded date                             : UTC 2013-10-21 05:15:21\nTagged date                              : UTC 2013-10-21 05:15:21\n\nVideo\nID                                       : 1\nFormat                                   : AVC\nFormat/Info                              : Advanced Video Codec\nFormat profile                           : &lt;a class=&quot;__cf_email__&quot; href=&quot;/cdn-cgi/l/email-protection&quot; data-cfemail=&quot;6a270b03042a2659445b&quot;&gt;[email&amp;#160;protected]&lt;/a&gt;&lt;script cf-hash='f9e31' type=&quot;text/javascript&quot;&gt;\n/* &lt;![CDATA[ */!function(){try{var t=&quot;currentScript&quot;in document?document.currentScript:function(){for(var t=document.getElementsByTagName(&quot;script&quot;),e=t.length;e--;)if(t[e].getAttribute(&quot;cf-hash&quot;))return t[e]}();if(t&amp;&amp;t.previousSibling){var e,r,n,i,c=t.previousSibling,a=c.getAttribute(&quot;data-cfemail&quot;);if(a){for(e=&quot;&quot;,r=parseInt(a.substr(0,2),16),n=2;a.length-n;n+=2)i=parseInt(a.substr(n,2),16)^r,e+=String.fromCharCode(i);e=document.createTextNode(e),c.parentNode.replaceChild(e,c)}}}catch(u){}}();/* ]]&gt; */&lt;/script&gt;\nFormat settings, CABAC                   : Yes\nFormat settings, ReFrames                : 3 frames\nCodec ID                                 : avc1\nCodec ID/Info                            : Advanced Video Coding\nDuration                                 : 3mn 30s\nBit rate                                 : 1 696 Kbps\nWidth                                    : 1 280 pixels\nHeight                                   : 720 pixels\nDisplay aspect ratio                     : 16:9\nFrame rate mode                          : Constant\nFrame rate                               : 23.976 fps\nColor space                              : YUV\nChroma subsampling                       : 4:2:0\nBit depth                                : 8 bits\nScan type                                : Progressive\nBits/(Pixel*Frame)                       : 0.077\nStream size                              : 42.5 MiB (87%)\nEncoded date                             : UTC 2013-10-21 05:15:21\nTagged date                              : UTC 2013-10-21 05:15:21\n\nAudio\nID                                       : 2\nFormat                                   : AAC\nFormat/Info                              : Advanced Audio Codec\nFormat profile                           : LC\nCodec ID                                 : 40\nDuration                                 : 3mn 30s\nBit rate mode                            : Variable\nBit rate                                 : 254 Kbps\nChannel(s)                               : 2 channels\nChannel positions                        : Front: L R\nSampling rate                            : 44.1 KHz\nCompression mode                         : Lossy\nDelay relative to video                  : -3s 754ms\nStream size                              : 6.36 MiB (13%)\nEncoded date                             : UTC 2013-10-21 05:15:07\nTagged date                              : UTC 2013-10-21 05:15:07\n\nShared By Sbyky\n[IMG]http://cdn.piczend.com/images/X3Ag13N3/1379453786_saythanks.gif[/IMG]\n[IMG]http://cdn.piczend.com/images/gGqhX2S8/1379453780_keepseeding.gif[/IMG]","torrent":{"xt":"urn:btih:ae3992a5c7d5374482bab314bb93b5ea1e885ddf","amp;dn":"Calvin+Harris+%26amp%3B+Alesso+Ft.+Hurts+-+Under+Control+%5BMusic+Vide","amp;tr":["udp%3A%2F%2Ftracker.openbittorrent.com%3A80","udp%3A%2F%2Fopen.demonii.com%3A1337","udp%3A%2F%2Ftracker.coppersurfer.tk%3A6969","udp%3A%2F%2Fexodus.desync.com%3A6969"],"infoHash":"ae3992a5c7d5374482bab314bb93b5ea1e885ddf","infoHashBuffer":{"type":"Buffer","data":[174,57,146,165,199,213,55,68,130,186,179,20,187,147,181,234,30,136,93,223]},"announce":[],"urlList":[]}}